<mxGraphModel dx="640" dy="480">
	<root>
		<mxCell id="root" style=""></mxCell>
		<mxCell id="layer1" style="" parent="root"></mxCell>
		<mxCell id="0 me" value="0 me" style="html=1;whiteSpace=wrap;fontColor=#ffffff;strokeColor=#2D7600;fillColor=#60A917;" parent="layer1" vertex="1">
			<mxGeometry width="80" height="40" as="geometry"></mxGeometry>
		</mxCell>
		<mxCell id="1 networks" value="1 networks" style="fontColor=#ffffff;strokeColor=#001DBC;fillColor=#0050ef;html=1;whiteSpace=wrap;" parent="layer1" vertex="1">
			<mxGeometry x="80" width="240" height="40" as="geometry"></mxGeometry>
		</mxCell>
		<mxCell id="2 recruiter search" value="2 recruiter search" style="html=1;whiteSpace=wrap;fontColor=#ffffff;strokeColor=#A50040;fillColor=#d80073;" parent="layer1" vertex="1">
			<mxGeometry x="320" width="80" height="40" as="geometry"></mxGeometry>
		</mxCell>
		<mxCell id="3 recruiter screening" value="3 recruiter screening" style="whiteSpace=wrap;fontColor=#ffffff;strokeColor=#3700CC;fillColor=#6a00ff;html=1;" parent="layer1" vertex="1">
			<mxGeometry x="400" width="80" height="40" as="geometry"></mxGeometry>
		</mxCell>
		<mxCell id="4 job application" value="4 job application" style="whiteSpace=wrap;fontColor=#ffffff;strokeColor=#6F0000;fillColor=#a20025;html=1;" parent="layer1" vertex="1">
			<mxGeometry x="480" width="160" height="40" as="geometry"></mxGeometry>
		</mxCell>
		<mxCell id="5 phone interview" value="5 phone interview" style="fontColor=#ffffff;fillColor=#1ba1e2;strokeColor=#006EAF;html=1;whiteSpace=wrap;" parent="layer1" vertex="1">
			<mxGeometry x="640" width="240" height="40" as="geometry"></mxGeometry>
		</mxCell>
		<mxCell id="outcome" value="outcome" style="fontColor=#ffffff;strokeColor=#005700;fillColor=#008a00;html=1;whiteSpace=wrap;" parent="layer1" vertex="1">
			<mxGeometry x="880" width="80" height="40" as="geometry"></mxGeometry>
		</mxCell>
		<mxCell id="0" value="me" style="ellipse;align=center;verticalAlign=top;fontColor=#000000;fillColor=#60A917;aspect=fixed;html=1;labelPosition=center;verticalLabelPosition=bottom;strokeColor=#2D7600;" parent="layer1" vertex="1">
			<mxGeometry x="35" y="45" width="10" height="10" as="geometry"></mxGeometry>
		</mxCell>
		<mxCell id="30" value="15" style="ellipse;labelPosition=center;verticalLabelPosition=bottom;align=center;fillColor=#a20025;aspect=fixed;html=1;verticalAlign=top;fontColor=#000000;strokeColor=#6F0000;" parent="layer1" vertex="1">
			<mxGeometry x="515" y="45" width="10" height="10" as="geometry"></mxGeometry>
		</mxCell>
		<mxCell id="0-30" style="orthogonalLoop=1;jettySize=auto;html=1;strokeWidth=1;edgeStyle=entityRelationEdgeStyle;" parent="layer1" edge="1" source="0" target="30">
			<mxGeometry relative="1" as="geometry"></mxGeometry>
		</mxCell>
		<mxCell id="42" value="22" style="ellipse;html=1;labelPosition=center;align=center;fontColor=#000000;strokeColor=#001DBC;aspect=fixed;verticalLabelPosition=bottom;verticalAlign=top;fillColor=#0050ef;" parent="layer1" vertex="1">
			<mxGeometry x="115" y="85" width="10" height="10" as="geometry"></mxGeometry>
		</mxCell>
		<mxCell id="0-42" style="edgeStyle=entityRelationEdgeStyle;orthogonalLoop=1;jettySize=auto;html=1;strokeWidth=1;" parent="layer1" edge="1" source="0" target="42">
			<mxGeometry relative="1" as="geometry"></mxGeometry>
		</mxCell>
		<mxCell id="wfalumni" value="Alumni" style="html=1;labelPosition=center;align=center;fontColor=#000000;strokeColor=#001DBC;fillColor=#0050ef;ellipse;aspect=fixed;verticalLabelPosition=bottom;verticalAlign=top;" parent="layer1" vertex="1">
			<mxGeometry x="115" y="125" width="10" height="10" as="geometry"></mxGeometry>
		</mxCell>
		<mxCell id="29" style="ellipse;aspect=fixed;html=1;align=center;verticalAlign=top;fontColor=#000000;fillColor=#0050ef;strokeColor=#001DBC;labelPosition=center;verticalLabelPosition=bottom;" parent="layer1" vertex="1">
			<mxGeometry x="195" y="125" width="10" height="10" as="geometry"></mxGeometry>
		</mxCell>
		<mxCell id="wfalumni-29" style="edgeStyle=entityRelationEdgeStyle;orthogonalLoop=1;jettySize=auto;html=1;strokeWidth=1;" parent="layer1" edge="1" source="wfalumni" target="29">
			<mxGeometry relative="1" as="geometry"></mxGeometry>
		</mxCell>
		<mxCell id="0-wfalumni" style="strokeWidth=1;edgeStyle=entityRelationEdgeStyle;orthogonalLoop=1;jettySize=auto;html=1;" parent="layer1" edge="1" source="0" target="wfalumni">
			<mxGeometry relative="1" as="geometry"></mxGeometry>
		</mxCell>
		<mxCell id="friends" value="Friends" style="ellipse;aspect=fixed;verticalLabelPosition=bottom;verticalAlign=top;fontColor=#000000;fillColor=#0050ef;html=1;labelPosition=center;align=center;strokeColor=#001DBC;" parent="layer1" vertex="1">
			<mxGeometry x="115" y="165" width="10" height="10" as="geometry"></mxGeometry>
		</mxCell>
		<mxCell id="18" value="11" style="aspect=fixed;html=1;verticalLabelPosition=bottom;verticalAlign=top;ellipse;align=center;fontColor=#000000;strokeColor=#001DBC;fillColor=#0050ef;labelPosition=center;" parent="layer1" vertex="1">
			<mxGeometry x="195" y="165" width="10" height="10" as="geometry"></mxGeometry>
		</mxCell>
		<mxCell id="19" style="ellipse;aspect=fixed;strokeColor=#001DBC;html=1;labelPosition=center;verticalLabelPosition=bottom;align=center;verticalAlign=top;fontColor=#000000;fillColor=#0050ef;" parent="layer1" vertex="1">
			<mxGeometry x="275" y="165" width="10" height="10" as="geometry"></mxGeometry>
		</mxCell>
		<mxCell id="25" style="fontColor=#000000;strokeColor=#3700CC;fillColor=#6a00ff;ellipse;aspect=fixed;verticalLabelPosition=bottom;verticalAlign=top;html=1;labelPosition=center;align=center;" parent="layer1" vertex="1">
			<mxGeometry x="435" y="165" width="10" height="10" as="geometry"></mxGeometry>
		</mxCell>
		<mxCell id="26" style="html=1;labelPosition=center;verticalLabelPosition=bottom;align=center;strokeColor=#006EAF;ellipse;verticalAlign=top;fontColor=#000000;fillColor=#1ba1e2;aspect=fixed;" parent="layer1" vertex="1">
			<mxGeometry x="675" y="165" width="10" height="10" as="geometry"></mxGeometry>
		</mxCell>
		<mxCell id="51" style="fontColor=#000000;strokeColor=#006EAF;aspect=fixed;html=1;labelPosition=center;verticalAlign=top;ellipse;verticalLabelPosition=bottom;align=center;fillColor=#1ba1e2;" parent="layer1" vertex="1">
			<mxGeometry x="755" y="165" width="10" height="10" as="geometry"></mxGeometry>
		</mxCell>
		<mxCell id="52" style="ellipse;html=1;labelPosition=center;fontColor=#000000;strokeColor=#006EAF;aspect=fixed;verticalLabelPosition=bottom;align=center;verticalAlign=top;fillColor=#1ba1e2;" parent="layer1" vertex="1">
			<mxGeometry x="835" y="165" width="10" height="10" as="geometry"></mxGeometry>
		</mxCell>
		<mxCell id="51-52" style="html=1;strokeWidth=1;edgeStyle=entityRelationEdgeStyle;orthogonalLoop=1;jettySize=auto;" parent="layer1" edge="1" source="51" target="52">
			<mxGeometry relative="1" as="geometry"></mxGeometry>
		</mxCell>
		<mxCell id="26-51" style="strokeWidth=1;edgeStyle=entityRelationEdgeStyle;orthogonalLoop=1;jettySize=auto;html=1;" parent="layer1" edge="1" source="26" target="51">
			<mxGeometry relative="1" as="geometry"></mxGeometry>
		</mxCell>
		<mxCell id="25-26" style="html=1;strokeWidth=1;edgeStyle=entityRelationEdgeStyle;orthogonalLoop=1;jettySize=auto;" parent="layer1" edge="1" source="25" target="26">
			<mxGeometry relative="1" as="geometry"></mxGeometry>
		</mxCell>
		<mxCell id="19-25" style="strokeWidth=1;edgeStyle=entityRelationEdgeStyle;orthogonalLoop=1;jettySize=auto;html=1;" parent="layer1" edge="1" source="19" target="25">
			<mxGeometry relative="1" as="geometry"></mxGeometry>
		</mxCell>
		<mxCell id="18-19" style="html=1;strokeWidth=1;edgeStyle=entityRelationEdgeStyle;orthogonalLoop=1;jettySize=auto;" parent="layer1" edge="1" source="18" target="19">
			<mxGeometry relative="1" as="geometry"></mxGeometry>
		</mxCell>
		<mxCell id="friends-18" style="html=1;strokeWidth=1;edgeStyle=entityRelationEdgeStyle;orthogonalLoop=1;jettySize=auto;" parent="layer1" edge="1" source="friends" target="18">
			<mxGeometry relative="1" as="geometry"></mxGeometry>
		</mxCell>
		<mxCell id="21" value="12" style="html=1;verticalAlign=top;fillColor=#0050ef;verticalLabelPosition=bottom;align=center;fontColor=#000000;strokeColor=#001DBC;ellipse;aspect=fixed;labelPosition=center;" parent="layer1" vertex="1">
			<mxGeometry x="195" y="205" width="10" height="10" as="geometry"></mxGeometry>
		</mxCell>
		<mxCell id="friends-21" style="edgeStyle=entityRelationEdgeStyle;orthogonalLoop=1;jettySize=auto;html=1;strokeWidth=1;" parent="layer1" edge="1" source="friends" target="21">
			<mxGeometry relative="1" as="geometry"></mxGeometry>
		</mxCell>
		<mxCell id="22" value="13" style="strokeColor=#001DBC;fillColor=#0050ef;ellipse;verticalLabelPosition=bottom;verticalAlign=top;fontColor=#000000;aspect=fixed;html=1;labelPosition=center;align=center;" parent="layer1" vertex="1">
			<mxGeometry x="195" y="245" width="10" height="10" as="geometry"></mxGeometry>
		</mxCell>
		<mxCell id="friends-22" style="orthogonalLoop=1;jettySize=auto;html=1;strokeWidth=1;edgeStyle=entityRelationEdgeStyle;" parent="layer1" edge="1" source="friends" target="22">
			<mxGeometry relative="1" as="geometry"></mxGeometry>
		</mxCell>
		<mxCell id="33" value="17" style="ellipse;aspect=fixed;labelPosition=center;align=center;verticalAlign=top;html=1;verticalLabelPosition=bottom;fontColor=#000000;strokeColor=#001DBC;fillColor=#0050ef;" parent="layer1" vertex="1">
			<mxGeometry x="195" y="285" width="10" height="10" as="geometry"></mxGeometry>
		</mxCell>
		<mxCell id="34" style="verticalAlign=top;fontColor=#000000;ellipse;labelPosition=center;verticalLabelPosition=bottom;fillColor=#a20025;strokeColor=#6F0000;aspect=fixed;html=1;align=center;" parent="layer1" vertex="1">
			<mxGeometry x="515" y="285" width="10" height="10" as="geometry"></mxGeometry>
		</mxCell>
		<mxCell id="54" style="fillColor=#a20025;aspect=fixed;labelPosition=center;fontColor=#000000;strokeColor=#6F0000;verticalAlign=top;ellipse;html=1;verticalLabelPosition=bottom;align=center;" parent="layer1" vertex="1">
			<mxGeometry x="595" y="285" width="10" height="10" as="geometry"></mxGeometry>
		</mxCell>
		<mxCell id="34-54" style="edgeStyle=entityRelationEdgeStyle;orthogonalLoop=1;jettySize=auto;html=1;strokeWidth=1;" parent="layer1" edge="1" source="34" target="54">
			<mxGeometry relative="1" as="geometry"></mxGeometry>
		</mxCell>
		<mxCell id="33-34" style="edgeStyle=entityRelationEdgeStyle;orthogonalLoop=1;jettySize=auto;html=1;strokeWidth=1;" parent="layer1" edge="1" source="33" target="34">
			<mxGeometry relative="1" as="geometry"></mxGeometry>
		</mxCell>
		<mxCell id="friends-33" style="edgeStyle=entityRelationEdgeStyle;orthogonalLoop=1;jettySize=auto;html=1;strokeWidth=1;" parent="layer1" edge="1" source="friends" target="33">
			<mxGeometry relative="1" as="geometry"></mxGeometry>
		</mxCell>
		<mxCell id="35" value="18" style="fontColor=#000000;ellipse;aspect=fixed;html=1;verticalLabelPosition=bottom;align=center;verticalAlign=top;labelPosition=center;strokeColor=#001DBC;fillColor=#0050ef;" parent="layer1" vertex="1">
			<mxGeometry x="195" y="325" width="10" height="10" as="geometry"></mxGeometry>
		</mxCell>
		<mxCell id="36" style="fillColor=#a20025;aspect=fixed;labelPosition=center;verticalLabelPosition=bottom;align=center;verticalAlign=top;fontColor=#000000;strokeColor=#6F0000;ellipse;html=1;" parent="layer1" vertex="1">
			<mxGeometry x="515" y="325" width="10" height="10" as="geometry"></mxGeometry>
		</mxCell>
		<mxCell id="35-36" style="html=1;strokeWidth=1;edgeStyle=entityRelationEdgeStyle;orthogonalLoop=1;jettySize=auto;" parent="layer1" edge="1" source="35" target="36">
			<mxGeometry relative="1" as="geometry"></mxGeometry>
		</mxCell>
		<mxCell id="friends-35" style="edgeStyle=entityRelationEdgeStyle;orthogonalLoop=1;jettySize=auto;html=1;strokeWidth=1;" parent="layer1" edge="1" source="friends" target="35">
			<mxGeometry relative="1" as="geometry"></mxGeometry>
		</mxCell>
		<mxCell id="38" value="20" style="aspect=fixed;verticalLabelPosition=bottom;align=center;strokeColor=#001DBC;ellipse;html=1;labelPosition=center;verticalAlign=top;fontColor=#000000;fillColor=#0050ef;" parent="layer1" vertex="1">
			<mxGeometry x="195" y="365" width="10" height="10" as="geometry"></mxGeometry>
		</mxCell>
		<mxCell id="39" style="verticalLabelPosition=bottom;ellipse;html=1;align=center;verticalAlign=top;fontColor=#000000;strokeColor=#A50040;fillColor=#d80073;aspect=fixed;labelPosition=center;" parent="layer1" vertex="1">
			<mxGeometry x="355" y="365" width="10" height="10" as="geometry"></mxGeometry>
		</mxCell>
		<mxCell id="40" style="labelPosition=center;fontColor=#000000;strokeColor=#3700CC;fillColor=#6a00ff;aspect=fixed;html=1;verticalLabelPosition=bottom;align=center;verticalAlign=top;ellipse;" parent="layer1" vertex="1">
			<mxGeometry x="435" y="365" width="10" height="10" as="geometry"></mxGeometry>
		</mxCell>
		<mxCell id="40declined" value="declined" style="html=1;align=center;strokeColor=#005700;fillColor=#008a00;aspect=fixed;labelPosition=center;verticalLabelPosition=bottom;verticalAlign=top;fontColor=#000000;ellipse;" parent="layer1" vertex="1">
			<mxGeometry x="915" y="365" width="10" height="10" as="geometry"></mxGeometry>
		</mxCell>
		<mxCell id="40-40declined" style="edgeStyle=entityRelationEdgeStyle;orthogonalLoop=1;jettySize=auto;html=1;strokeWidth=1;" parent="layer1" edge="1" source="40" target="40declined">
			<mxGeometry relative="1" as="geometry"></mxGeometry>
		</mxCell>
		<mxCell id="39-40" style="strokeWidth=1;edgeStyle=entityRelationEdgeStyle;orthogonalLoop=1;jettySize=auto;html=1;" parent="layer1" edge="1" source="39" target="40">
			<mxGeometry relative="1" as="geometry"></mxGeometry>
		</mxCell>
		<mxCell id="38-39" style="jettySize=auto;html=1;strokeWidth=1;edgeStyle=entityRelationEdgeStyle;orthogonalLoop=1;" parent="layer1" edge="1" source="38" target="39">
			<mxGeometry relative="1" as="geometry"></mxGeometry>
		</mxCell>
		<mxCell id="friends-38" style="edgeStyle=entityRelationEdgeStyle;orthogonalLoop=1;jettySize=auto;html=1;strokeWidth=1;" parent="layer1" edge="1" source="friends" target="38">
			<mxGeometry relative="1" as="geometry"></mxGeometry>
		</mxCell>
		<mxCell id="0-friends" style="edgeStyle=entityRelationEdgeStyle;orthogonalLoop=1;jettySize=auto;html=1;strokeWidth=1;" parent="layer1" edge="1" source="0" target="friends">
			<mxGeometry relative="1" as="geometry"></mxGeometry>
		</mxCell>
		<mxCell id="hackerx" value="HackerX" style="aspect=fixed;labelPosition=center;verticalLabelPosition=bottom;verticalAlign=top;strokeColor=#001DBC;fillColor=#0050ef;ellipse;html=1;align=center;fontColor=#000000;" parent="layer1" vertex="1">
			<mxGeometry x="115" y="405" width="10" height="10" as="geometry"></mxGeometry>
		</mxCell>
		<mxCell id="10" value="6" style="fillColor=#0050ef;ellipse;fontColor=#000000;strokeColor=#001DBC;verticalLabelPosition=bottom;align=center;verticalAlign=top;aspect=fixed;html=1;labelPosition=center;" parent="layer1" vertex="1">
			<mxGeometry x="195" y="405" width="10" height="10" as="geometry"></mxGeometry>
		</mxCell>
		<mxCell id="hackerx-10" style="jettySize=auto;html=1;strokeWidth=1;edgeStyle=entityRelationEdgeStyle;orthogonalLoop=1;" parent="layer1" edge="1" source="hackerx" target="10">
			<mxGeometry relative="1" as="geometry"></mxGeometry>
		</mxCell>
		<mxCell id="11" value="7" style="verticalLabelPosition=bottom;align=center;fontColor=#000000;fillColor=#0050ef;ellipse;aspect=fixed;html=1;labelPosition=center;verticalAlign=top;strokeColor=#001DBC;" parent="layer1" vertex="1">
			<mxGeometry x="195" y="445" width="10" height="10" as="geometry"></mxGeometry>
		</mxCell>
		<mxCell id="17" style="verticalLabelPosition=bottom;align=center;fontColor=#000000;strokeColor=#001DBC;fillColor=#0050ef;ellipse;aspect=fixed;verticalAlign=top;html=1;labelPosition=center;" parent="layer1" vertex="1">
			<mxGeometry x="275" y="445" width="10" height="10" as="geometry"></mxGeometry>
		</mxCell>
		<mxCell id="17declined" value="declined" style="verticalLabelPosition=bottom;align=center;verticalAlign=top;fontColor=#000000;fillColor=#008a00;ellipse;html=1;labelPosition=center;strokeColor=#005700;aspect=fixed;" parent="layer1" vertex="1">
			<mxGeometry x="915" y="445" width="10" height="10" as="geometry"></mxGeometry>
		</mxCell>
		<mxCell id="17-17declined" style="jettySize=auto;html=1;strokeWidth=1;edgeStyle=entityRelationEdgeStyle;orthogonalLoop=1;" parent="layer1" edge="1" source="17" target="17declined">
			<mxGeometry relative="1" as="geometry"></mxGeometry>
		</mxCell>
		<mxCell id="11-17" style="edgeStyle=entityRelationEdgeStyle;orthogonalLoop=1;jettySize=auto;html=1;strokeWidth=1;" parent="layer1" edge="1" source="11" target="17">
			<mxGeometry relative="1" as="geometry"></mxGeometry>
		</mxCell>
		<mxCell id="hackerx-11" style="strokeWidth=1;edgeStyle=entityRelationEdgeStyle;orthogonalLoop=1;jettySize=auto;html=1;" parent="layer1" edge="1" source="hackerx" target="11">
			<mxGeometry relative="1" as="geometry"></mxGeometry>
		</mxCell>
		<mxCell id="12" value="8" style="labelPosition=center;verticalAlign=top;strokeColor=#001DBC;verticalLabelPosition=bottom;align=center;fontColor=#000000;fillColor=#0050ef;ellipse;aspect=fixed;html=1;" parent="layer1" vertex="1">
			<mxGeometry x="195" y="485" width="10" height="10" as="geometry"></mxGeometry>
		</mxCell>
		<mxCell id="hackerx-12" style="jettySize=auto;html=1;strokeWidth=1;edgeStyle=entityRelationEdgeStyle;orthogonalLoop=1;" parent="layer1" edge="1" source="hackerx" target="12">
			<mxGeometry relative="1" as="geometry"></mxGeometry>
		</mxCell>
		<mxCell id="13" value="9" style="verticalLabelPosition=bottom;align=center;strokeColor=#001DBC;ellipse;aspect=fixed;html=1;labelPosition=center;verticalAlign=top;fontColor=#000000;fillColor=#0050ef;" parent="layer1" vertex="1">
			<mxGeometry x="195" y="525" width="10" height="10" as="geometry"></mxGeometry>
		</mxCell>
		<mxCell id="13declined" value="declined" style="align=center;verticalAlign=top;fillColor=#008a00;ellipse;aspect=fixed;html=1;labelPosition=center;verticalLabelPosition=bottom;fontColor=#000000;strokeColor=#005700;" parent="layer1" vertex="1">
			<mxGeometry x="915" y="525" width="10" height="10" as="geometry"></mxGeometry>
		</mxCell>
		<mxCell id="13-13declined" style="edgeStyle=entityRelationEdgeStyle;orthogonalLoop=1;jettySize=auto;html=1;strokeWidth=1;" parent="layer1" edge="1" source="13" target="13declined">
			<mxGeometry relative="1" as="geometry"></mxGeometry>
		</mxCell>
		<mxCell id="hackerx-13" style="html=1;strokeWidth=1;edgeStyle=entityRelationEdgeStyle;orthogonalLoop=1;jettySize=auto;" parent="layer1" edge="1" source="hackerx" target="13">
			<mxGeometry relative="1" as="geometry"></mxGeometry>
		</mxCell>
		<mxCell id="0-hackerx" style="edgeStyle=entityRelationEdgeStyle;orthogonalLoop=1;jettySize=auto;html=1;strokeWidth=1;" parent="layer1" edge="1" source="0" target="hackerx">
			<mxGeometry relative="1" as="geometry"></mxGeometry>
		</mxCell>
		<mxCell id="keystone" value="Outplacement" style="verticalAlign=top;fillColor=#0050ef;aspect=fixed;align=center;labelPosition=center;verticalLabelPosition=bottom;fontColor=#000000;strokeColor=#001DBC;ellipse;html=1;" parent="layer1" vertex="1">
			<mxGeometry x="115" y="565" width="10" height="10" as="geometry"></mxGeometry>
		</mxCell>
		<mxCell id="14" style="align=center;verticalAlign=top;strokeColor=#001DBC;ellipse;aspect=fixed;html=1;fillColor=#0050ef;labelPosition=center;verticalLabelPosition=bottom;fontColor=#000000;" parent="layer1" vertex="1">
			<mxGeometry x="195" y="565" width="10" height="10" as="geometry"></mxGeometry>
		</mxCell>
		<mxCell id="28" style="html=1;labelPosition=center;align=center;strokeColor=#001DBC;fillColor=#0050ef;ellipse;aspect=fixed;verticalLabelPosition=bottom;verticalAlign=top;fontColor=#000000;" parent="layer1" vertex="1">
			<mxGeometry x="275" y="565" width="10" height="10" as="geometry"></mxGeometry>
		</mxCell>
		<mxCell id="14-28" style="html=1;strokeWidth=1;edgeStyle=entityRelationEdgeStyle;orthogonalLoop=1;jettySize=auto;" parent="layer1" edge="1" source="14" target="28">
			<mxGeometry relative="1" as="geometry"></mxGeometry>
		</mxCell>
		<mxCell id="keystone-14" style="edgeStyle=entityRelationEdgeStyle;orthogonalLoop=1;jettySize=auto;html=1;strokeWidth=1;" parent="layer1" edge="1" source="keystone" target="14">
			<mxGeometry relative="1" as="geometry"></mxGeometry>
		</mxCell>
		<mxCell id="0-keystone" style="edgeStyle=entityRelationEdgeStyle;orthogonalLoop=1;jettySize=auto;html=1;strokeWidth=1;" parent="layer1" edge="1" source="0" target="keystone">
			<mxGeometry relative="1" as="geometry"></mxGeometry>
		</mxCell>
		<mxCell id="linkedin" value="linkedin.com" style="verticalAlign=top;fontColor=#000000;strokeColor=#001DBC;ellipse;html=1;verticalLabelPosition=bottom;fillColor=#0050ef;aspect=fixed;labelPosition=center;align=center;" parent="layer1" vertex="1">
			<mxGeometry x="115" y="605" width="10" height="10" as="geometry"></mxGeometry>
		</mxCell>
		<mxCell id="37" value="19" style="ellipse;aspect=fixed;verticalLabelPosition=bottom;fontColor=#000000;strokeColor=#6F0000;html=1;labelPosition=center;align=center;verticalAlign=top;fillColor=#a20025;" parent="layer1" vertex="1">
			<mxGeometry x="515" y="605" width="10" height="10" as="geometry"></mxGeometry>
		</mxCell>
		<mxCell id="37rejected" value="rejected" style="verticalLabelPosition=bottom;fontColor=#000000;strokeColor=#005700;ellipse;aspect=fixed;align=center;verticalAlign=top;fillColor=#008a00;html=1;labelPosition=center;" parent="layer1" vertex="1">
			<mxGeometry x="915" y="605" width="10" height="10" as="geometry"></mxGeometry>
		</mxCell>
		<mxCell id="37-37rejected" style="html=1;strokeWidth=1;edgeStyle=entityRelationEdgeStyle;orthogonalLoop=1;jettySize=auto;" parent="layer1" edge="1" source="37" target="37rejected">
			<mxGeometry relative="1" as="geometry"></mxGeometry>
		</mxCell>
		<mxCell id="linkedin-37" style="jettySize=auto;html=1;strokeWidth=1;edgeStyle=entityRelationEdgeStyle;orthogonalLoop=1;" parent="layer1" edge="1" source="linkedin" target="37">
			<mxGeometry relative="1" as="geometry"></mxGeometry>
		</mxCell>
		<mxCell id="8" value="5" style="verticalLabelPosition=bottom;strokeColor=#6F0000;html=1;labelPosition=center;align=center;verticalAlign=top;fontColor=#000000;fillColor=#a20025;ellipse;aspect=fixed;" parent="layer1" vertex="1">
			<mxGeometry x="515" y="645" width="10" height="10" as="geometry"></mxGeometry>
		</mxCell>
		<mxCell id="8rejected" value="rejected" style="ellipse;aspect=fixed;fillColor=#008a00;fontColor=#000000;strokeColor=#005700;html=1;labelPosition=center;verticalLabelPosition=bottom;align=center;verticalAlign=top;" parent="layer1" vertex="1">
			<mxGeometry x="915" y="645" width="10" height="10" as="geometry"></mxGeometry>
		</mxCell>
		<mxCell id="8-8rejected" style="edgeStyle=entityRelationEdgeStyle;orthogonalLoop=1;jettySize=auto;html=1;strokeWidth=1;" parent="layer1" edge="1" source="8" target="8rejected">
			<mxGeometry relative="1" as="geometry"></mxGeometry>
		</mxCell>
		<mxCell id="linkedin-8" style="strokeWidth=1;edgeStyle=entityRelationEdgeStyle;orthogonalLoop=1;jettySize=auto;html=1;" parent="layer1" edge="1" source="linkedin" target="8">
			<mxGeometry relative="1" as="geometry"></mxGeometry>
		</mxCell>
		<mxCell id="1" value="1" style="ellipse;html=1;fontColor=#000000;strokeColor=#A50040;verticalAlign=top;fillColor=#d80073;aspect=fixed;labelPosition=center;verticalLabelPosition=bottom;align=center;" parent="layer1" vertex="1">
			<mxGeometry x="355" y="685" width="10" height="10" as="geometry"></mxGeometry>
		</mxCell>
		<mxCell id="6" style="html=1;fontColor=#000000;strokeColor=#3700CC;fillColor=#6a00ff;ellipse;aspect=fixed;labelPosition=center;verticalLabelPosition=bottom;align=center;verticalAlign=top;" parent="layer1" vertex="1">
			<mxGeometry x="435" y="685" width="10" height="10" as="geometry"></mxGeometry>
		</mxCell>
		<mxCell id="7" style="ellipse;verticalLabelPosition=bottom;fontColor=#000000;strokeColor=#6F0000;fillColor=#a20025;aspect=fixed;html=1;labelPosition=center;align=center;verticalAlign=top;" parent="layer1" vertex="1">
			<mxGeometry x="515" y="685" width="10" height="10" as="geometry"></mxGeometry>
		</mxCell>
		<mxCell id="27" style="strokeColor=#6F0000;fillColor=#a20025;ellipse;html=1;labelPosition=center;align=center;verticalAlign=top;aspect=fixed;verticalLabelPosition=bottom;fontColor=#000000;" parent="layer1" vertex="1">
			<mxGeometry x="595" y="685" width="10" height="10" as="geometry"></mxGeometry>
		</mxCell>
		<mxCell id="53" style="aspect=fixed;html=1;verticalLabelPosition=bottom;strokeColor=#006EAF;fillColor=#1ba1e2;ellipse;labelPosition=center;align=center;verticalAlign=top;fontColor=#000000;" parent="layer1" vertex="1">
			<mxGeometry x="675" y="685" width="10" height="10" as="geometry"></mxGeometry>
		</mxCell>
		<mxCell id="27-53" style="orthogonalLoop=1;jettySize=auto;html=1;strokeWidth=1;edgeStyle=entityRelationEdgeStyle;" parent="layer1" edge="1" source="27" target="53">
			<mxGeometry relative="1" as="geometry"></mxGeometry>
		</mxCell>
		<mxCell id="7-27" style="html=1;strokeWidth=1;edgeStyle=entityRelationEdgeStyle;orthogonalLoop=1;jettySize=auto;" parent="layer1" edge="1" source="7" target="27">
			<mxGeometry relative="1" as="geometry"></mxGeometry>
		</mxCell>
		<mxCell id="6-7" style="orthogonalLoop=1;jettySize=auto;html=1;strokeWidth=1;edgeStyle=entityRelationEdgeStyle;" parent="layer1" edge="1" source="6" target="7">
			<mxGeometry relative="1" as="geometry"></mxGeometry>
		</mxCell>
		<mxCell id="1-6" style="jettySize=auto;html=1;strokeWidth=1;edgeStyle=entityRelationEdgeStyle;orthogonalLoop=1;" parent="layer1" edge="1" source="1" target="6">
			<mxGeometry relative="1" as="geometry"></mxGeometry>
		</mxCell>
		<mxCell id="linkedin-1" style="edgeStyle=entityRelationEdgeStyle;orthogonalLoop=1;jettySize=auto;html=1;strokeWidth=1;" parent="layer1" edge="1" source="linkedin" target="1">
			<mxGeometry relative="1" as="geometry"></mxGeometry>
		</mxCell>
		<mxCell id="15" value="10" style="align=center;verticalAlign=top;fontColor=#000000;strokeColor=#A50040;ellipse;labelPosition=center;verticalLabelPosition=bottom;fillColor=#d80073;aspect=fixed;html=1;" parent="layer1" vertex="1">
			<mxGeometry x="355" y="725" width="10" height="10" as="geometry"></mxGeometry>
		</mxCell>
		<mxCell id="16" style="ellipse;fontColor=#000000;strokeColor=#6F0000;align=center;verticalAlign=top;fillColor=#a20025;aspect=fixed;html=1;labelPosition=center;verticalLabelPosition=bottom;" parent="layer1" vertex="1">
			<mxGeometry x="515" y="725" width="10" height="10" as="geometry"></mxGeometry>
		</mxCell>
		<mxCell id="15-16" style="edgeStyle=entityRelationEdgeStyle;orthogonalLoop=1;jettySize=auto;html=1;strokeWidth=1;" parent="layer1" edge="1" source="15" target="16">
			<mxGeometry relative="1" as="geometry"></mxGeometry>
		</mxCell>
		<mxCell id="44" style="strokeColor=#3700CC;fillColor=#6a00ff;ellipse;aspect=fixed;html=1;labelPosition=center;verticalAlign=top;verticalLabelPosition=bottom;align=center;fontColor=#000000;" parent="layer1" vertex="1">
			<mxGeometry x="435" y="765" width="10" height="10" as="geometry"></mxGeometry>
		</mxCell>
		<mxCell id="15-44" style="strokeWidth=1;edgeStyle=entityRelationEdgeStyle;orthogonalLoop=1;jettySize=auto;html=1;" parent="layer1" edge="1" source="15" target="44">
			<mxGeometry relative="1" as="geometry"></mxGeometry>
		</mxCell>
		<mxCell id="linkedin-15" style="strokeWidth=1;edgeStyle=entityRelationEdgeStyle;orthogonalLoop=1;jettySize=auto;html=1;" parent="layer1" edge="1" source="linkedin" target="15">
			<mxGeometry relative="1" as="geometry"></mxGeometry>
		</mxCell>
		<mxCell id="24" value="14" style="html=1;fontColor=#000000;fillColor=#d80073;aspect=fixed;labelPosition=center;verticalLabelPosition=bottom;align=center;verticalAlign=top;strokeColor=#A50040;ellipse;" parent="layer1" vertex="1">
			<mxGeometry x="355" y="805" width="10" height="10" as="geometry"></mxGeometry>
		</mxCell>
		<mxCell id="24declined" value="declined" style="labelPosition=center;verticalLabelPosition=bottom;aspect=fixed;html=1;align=center;verticalAlign=top;fontColor=#000000;strokeColor=#005700;fillColor=#008a00;ellipse;" parent="layer1" vertex="1">
			<mxGeometry x="915" y="805" width="10" height="10" as="geometry"></mxGeometry>
		</mxCell>
		<mxCell id="24-24declined" style="orthogonalLoop=1;jettySize=auto;html=1;strokeWidth=1;edgeStyle=entityRelationEdgeStyle;" parent="layer1" edge="1" source="24" target="24declined">
			<mxGeometry relative="1" as="geometry"></mxGeometry>
		</mxCell>
		<mxCell id="linkedin-24" style="edgeStyle=entityRelationEdgeStyle;orthogonalLoop=1;jettySize=auto;html=1;strokeWidth=1;" parent="layer1" edge="1" source="linkedin" target="24">
			<mxGeometry relative="1" as="geometry"></mxGeometry>
		</mxCell>
		<mxCell id="31" value="16" style="strokeColor=#A50040;ellipse;aspect=fixed;html=1;labelPosition=center;verticalLabelPosition=bottom;align=center;verticalAlign=top;fontColor=#000000;fillColor=#d80073;" parent="layer1" vertex="1">
			<mxGeometry x="355" y="845" width="10" height="10" as="geometry"></mxGeometry>
		</mxCell>
		<mxCell id="32" style="fontColor=#000000;strokeColor=#3700CC;ellipse;aspect=fixed;labelPosition=center;align=center;html=1;verticalLabelPosition=bottom;verticalAlign=top;fillColor=#6a00ff;" parent="layer1" vertex="1">
			<mxGeometry x="435" y="845" width="10" height="10" as="geometry"></mxGeometry>
		</mxCell>
		<mxCell id="32rejected" value="rejected" style="verticalAlign=top;fontColor=#000000;strokeColor=#005700;ellipse;aspect=fixed;html=1;labelPosition=center;align=center;verticalLabelPosition=bottom;fillColor=#008a00;" parent="layer1" vertex="1">
			<mxGeometry x="915" y="845" width="10" height="10" as="geometry"></mxGeometry>
		</mxCell>
		<mxCell id="32-32rejected" style="html=1;strokeWidth=1;edgeStyle=entityRelationEdgeStyle;orthogonalLoop=1;jettySize=auto;" parent="layer1" edge="1" source="32" target="32rejected">
			<mxGeometry relative="1" as="geometry"></mxGeometry>
		</mxCell>
		<mxCell id="31-32" style="orthogonalLoop=1;jettySize=auto;html=1;strokeWidth=1;edgeStyle=entityRelationEdgeStyle;" parent="layer1" edge="1" source="31" target="32">
			<mxGeometry relative="1" as="geometry"></mxGeometry>
		</mxCell>
		<mxCell id="linkedin-31" style="edgeStyle=entityRelationEdgeStyle;orthogonalLoop=1;jettySize=auto;html=1;strokeWidth=1;" parent="layer1" edge="1" source="linkedin" target="31">
			<mxGeometry relative="1" as="geometry"></mxGeometry>
		</mxCell>
		<mxCell id="2" value="2" style="ellipse;align=center;fillColor=#d80073;verticalAlign=top;fontColor=#000000;strokeColor=#A50040;aspect=fixed;html=1;labelPosition=center;verticalLabelPosition=bottom;" parent="layer1" vertex="1">
			<mxGeometry x="355" y="885" width="10" height="10" as="geometry"></mxGeometry>
		</mxCell>
		<mxCell id="9" style="aspect=fixed;labelPosition=center;strokeColor=#3700CC;ellipse;verticalLabelPosition=bottom;align=center;verticalAlign=top;fontColor=#000000;fillColor=#6a00ff;html=1;" parent="layer1" vertex="1">
			<mxGeometry x="435" y="885" width="10" height="10" as="geometry"></mxGeometry>
		</mxCell>
		<mxCell id="23" style="fillColor=#a20025;aspect=fixed;labelPosition=center;verticalLabelPosition=bottom;align=center;strokeColor=#6F0000;ellipse;html=1;verticalAlign=top;fontColor=#000000;" parent="layer1" vertex="1">
			<mxGeometry x="515" y="885" width="10" height="10" as="geometry"></mxGeometry>
		</mxCell>
		<mxCell id="23rejected" value="rejected" style="verticalLabelPosition=bottom;verticalAlign=top;strokeColor=#005700;fillColor=#008a00;aspect=fixed;labelPosition=center;align=center;fontColor=#000000;ellipse;html=1;" parent="layer1" vertex="1">
			<mxGeometry x="915" y="885" width="10" height="10" as="geometry"></mxGeometry>
		</mxCell>
		<mxCell id="23-23rejected" style="strokeWidth=1;edgeStyle=entityRelationEdgeStyle;orthogonalLoop=1;jettySize=auto;html=1;" parent="layer1" edge="1" source="23" target="23rejected">
			<mxGeometry relative="1" as="geometry"></mxGeometry>
		</mxCell>
		<mxCell id="9-23" style="edgeStyle=entityRelationEdgeStyle;orthogonalLoop=1;jettySize=auto;html=1;strokeWidth=1;" parent="layer1" edge="1" source="9" target="23">
			<mxGeometry relative="1" as="geometry"></mxGeometry>
		</mxCell>
		<mxCell id="2-9" style="edgeStyle=entityRelationEdgeStyle;orthogonalLoop=1;jettySize=auto;html=1;strokeWidth=1;" parent="layer1" edge="1" source="2" target="9">
			<mxGeometry relative="1" as="geometry"></mxGeometry>
		</mxCell>
		<mxCell id="linkedin-2" style="edgeStyle=entityRelationEdgeStyle;orthogonalLoop=1;jettySize=auto;html=1;strokeWidth=1;" parent="layer1" edge="1" source="linkedin" target="2">
			<mxGeometry relative="1" as="geometry"></mxGeometry>
		</mxCell>
		<mxCell id="41" value="21" style="fillColor=#d80073;ellipse;html=1;labelPosition=center;verticalLabelPosition=bottom;fontColor=#000000;strokeColor=#A50040;aspect=fixed;align=center;verticalAlign=top;" parent="layer1" vertex="1">
			<mxGeometry x="355" y="925" width="10" height="10" as="geometry"></mxGeometry>
		</mxCell>
		<mxCell id="43" style="strokeColor=#3700CC;ellipse;labelPosition=center;verticalLabelPosition=bottom;align=center;verticalAlign=top;fontColor=#000000;fillColor=#6a00ff;aspect=fixed;html=1;" parent="layer1" vertex="1">
			<mxGeometry x="435" y="925" width="10" height="10" as="geometry"></mxGeometry>
		</mxCell>
		<mxCell id="41-43" style="jettySize=auto;html=1;strokeWidth=1;edgeStyle=entityRelationEdgeStyle;orthogonalLoop=1;" parent="layer1" edge="1" source="41" target="43">
			<mxGeometry relative="1" as="geometry"></mxGeometry>
		</mxCell>
		<mxCell id="linkedin-41" style="jettySize=auto;html=1;strokeWidth=1;edgeStyle=entityRelationEdgeStyle;orthogonalLoop=1;" parent="layer1" edge="1" source="linkedin" target="41">
			<mxGeometry relative="1" as="geometry"></mxGeometry>
		</mxCell>
		<mxCell id="45" value="23" style="fillColor=#d80073;html=1;verticalLabelPosition=bottom;verticalAlign=top;fontColor=#000000;strokeColor=#A50040;ellipse;aspect=fixed;labelPosition=center;align=center;" parent="layer1" vertex="1">
			<mxGeometry x="355" y="965" width="10" height="10" as="geometry"></mxGeometry>
		</mxCell>
		<mxCell id="46" style="align=center;fontColor=#000000;fillColor=#6a00ff;strokeColor=#3700CC;ellipse;aspect=fixed;verticalLabelPosition=bottom;verticalAlign=top;html=1;labelPosition=center;" parent="layer1" vertex="1">
			<mxGeometry x="435" y="965" width="10" height="10" as="geometry"></mxGeometry>
		</mxCell>
		<mxCell id="46declined" value="declined" style="verticalAlign=top;strokeColor=#005700;ellipse;aspect=fixed;html=1;verticalLabelPosition=bottom;labelPosition=center;align=center;fontColor=#000000;fillColor=#008a00;" parent="layer1" vertex="1">
			<mxGeometry x="915" y="965" width="10" height="10" as="geometry"></mxGeometry>
		</mxCell>
		<mxCell id="46-46declined" style="jettySize=auto;html=1;strokeWidth=1;edgeStyle=entityRelationEdgeStyle;orthogonalLoop=1;" parent="layer1" edge="1" source="46" target="46declined">
			<mxGeometry relative="1" as="geometry"></mxGeometry>
		</mxCell>
		<mxCell id="45-46" style="html=1;strokeWidth=1;edgeStyle=entityRelationEdgeStyle;orthogonalLoop=1;jettySize=auto;" parent="layer1" edge="1" source="45" target="46">
			<mxGeometry relative="1" as="geometry"></mxGeometry>
		</mxCell>
		<mxCell id="linkedin-45" style="jettySize=auto;html=1;strokeWidth=1;edgeStyle=entityRelationEdgeStyle;orthogonalLoop=1;" parent="layer1" edge="1" source="linkedin" target="45">
			<mxGeometry relative="1" as="geometry"></mxGeometry>
		</mxCell>
		<mxCell id="47" value="24" style="verticalLabelPosition=bottom;fontColor=#000000;aspect=fixed;html=1;labelPosition=center;strokeColor=#A50040;fillColor=#d80073;ellipse;align=center;verticalAlign=top;" parent="layer1" vertex="1">
			<mxGeometry x="355" y="1005" width="10" height="10" as="geometry"></mxGeometry>
		</mxCell>
		<mxCell id="48" style="ellipse;html=1;verticalAlign=top;fontColor=#000000;strokeColor=#3700CC;aspect=fixed;labelPosition=center;verticalLabelPosition=bottom;align=center;fillColor=#6a00ff;" parent="layer1" vertex="1">
			<mxGeometry x="435" y="1005" width="10" height="10" as="geometry"></mxGeometry>
		</mxCell>
		<mxCell id="48declined" value="declined" style="strokeColor=#005700;ellipse;html=1;verticalLabelPosition=bottom;fontColor=#000000;fillColor=#008a00;aspect=fixed;labelPosition=center;align=center;verticalAlign=top;" parent="layer1" vertex="1">
			<mxGeometry x="915" y="1005" width="10" height="10" as="geometry"></mxGeometry>
		</mxCell>
		<mxCell id="48-48declined" style="edgeStyle=entityRelationEdgeStyle;orthogonalLoop=1;jettySize=auto;html=1;strokeWidth=1;" parent="layer1" edge="1" source="48" target="48declined">
			<mxGeometry relative="1" as="geometry"></mxGeometry>
		</mxCell>
		<mxCell id="47-48" style="strokeWidth=1;edgeStyle=entityRelationEdgeStyle;orthogonalLoop=1;jettySize=auto;html=1;" parent="layer1" edge="1" source="47" target="48">
			<mxGeometry relative="1" as="geometry"></mxGeometry>
		</mxCell>
		<mxCell id="linkedin-47" style="html=1;strokeWidth=1;edgeStyle=entityRelationEdgeStyle;orthogonalLoop=1;jettySize=auto;" parent="layer1" edge="1" source="linkedin" target="47">
			<mxGeometry relative="1" as="geometry"></mxGeometry>
		</mxCell>
		<mxCell id="3" value="3" style="aspect=fixed;verticalLabelPosition=bottom;align=center;strokeColor=#A50040;fillColor=#d80073;ellipse;html=1;labelPosition=center;verticalAlign=top;fontColor=#000000;" parent="layer1" vertex="1">
			<mxGeometry x="355" y="1045" width="10" height="10" as="geometry"></mxGeometry>
		</mxCell>
		<mxCell id="linkedin-3" style="edgeStyle=entityRelationEdgeStyle;orthogonalLoop=1;jettySize=auto;html=1;strokeWidth=1;" parent="layer1" edge="1" source="linkedin" target="3">
			<mxGeometry relative="1" as="geometry"></mxGeometry>
		</mxCell>
		<mxCell id="49" value="35" style="fillColor=#d80073;ellipse;aspect=fixed;align=center;verticalAlign=top;fontColor=#000000;html=1;labelPosition=center;verticalLabelPosition=bottom;strokeColor=#A50040;" parent="layer1" vertex="1">
			<mxGeometry x="355" y="1085" width="10" height="10" as="geometry"></mxGeometry>
		</mxCell>
		<mxCell id="50" style="ellipse;html=1;verticalLabelPosition=bottom;verticalAlign=top;aspect=fixed;labelPosition=center;align=center;fontColor=#000000;strokeColor=#3700CC;fillColor=#6a00ff;" parent="layer1" vertex="1">
			<mxGeometry x="435" y="1085" width="10" height="10" as="geometry"></mxGeometry>
		</mxCell>
		<mxCell id="49-50" style="strokeWidth=1;edgeStyle=entityRelationEdgeStyle;orthogonalLoop=1;jettySize=auto;html=1;" parent="layer1" edge="1" source="49" target="50">
			<mxGeometry relative="1" as="geometry"></mxGeometry>
		</mxCell>
		<mxCell id="linkedin-49" style="jettySize=auto;html=1;strokeWidth=1;edgeStyle=entityRelationEdgeStyle;orthogonalLoop=1;" parent="layer1" edge="1" source="linkedin" target="49">
			<mxGeometry relative="1" as="geometry"></mxGeometry>
		</mxCell>
		<mxCell id="5" value="4" style="labelPosition=center;verticalLabelPosition=bottom;fontColor=#000000;strokeColor=#A50040;fillColor=#d80073;ellipse;aspect=fixed;verticalAlign=top;html=1;align=center;" parent="layer1" vertex="1">
			<mxGeometry x="355" y="1125" width="10" height="10" as="geometry"></mxGeometry>
		</mxCell>
		<mxCell id="20" style="aspect=fixed;labelPosition=center;verticalLabelPosition=bottom;align=center;verticalAlign=top;fontColor=#000000;ellipse;html=1;strokeColor=#3700CC;fillColor=#6a00ff;" parent="layer1" vertex="1">
			<mxGeometry x="435" y="1125" width="10" height="10" as="geometry"></mxGeometry>
		</mxCell>
		<mxCell id="20rejected" value="rejected" style="strokeColor=#005700;ellipse;aspect=fixed;labelPosition=center;verticalAlign=top;fontColor=#000000;fillColor=#008a00;html=1;verticalLabelPosition=bottom;align=center;" parent="layer1" vertex="1">
			<mxGeometry x="915" y="1125" width="10" height="10" as="geometry"></mxGeometry>
		</mxCell>
		<mxCell id="20-20rejected" style="edgeStyle=entityRelationEdgeStyle;orthogonalLoop=1;jettySize=auto;html=1;strokeWidth=1;" parent="layer1" edge="1" source="20" target="20rejected">
			<mxGeometry relative="1" as="geometry"></mxGeometry>
		</mxCell>
		<mxCell id="5-20" style="jettySize=auto;html=1;strokeWidth=1;edgeStyle=entityRelationEdgeStyle;orthogonalLoop=1;" parent="layer1" edge="1" source="5" target="20">
			<mxGeometry relative="1" as="geometry"></mxGeometry>
		</mxCell>
		<mxCell id="linkedin-5" style="strokeWidth=1;edgeStyle=entityRelationEdgeStyle;orthogonalLoop=1;jettySize=auto;html=1;" parent="layer1" edge="1" source="linkedin" target="5">
			<mxGeometry relative="1" as="geometry"></mxGeometry>
		</mxCell>
		<mxCell id="0-linkedin" style="edgeStyle=entityRelationEdgeStyle;orthogonalLoop=1;jettySize=auto;html=1;strokeWidth=1;" parent="layer1" edge="1" source="0" target="linkedin">
			<mxGeometry relative="1" as="geometry"></mxGeometry>
		</mxCell>
	</root>
</mxGraphModel>